# xmcd
#
# Track frame offsets:
#	150
#	11836
#	35734
#	61383
#	76623
#	97859
#	118587
#	135590
#	156703
#	175302
#	194121
#	216735
#	234671
#	249366
#	274260
#
# Disc length: 3919 seconds
#
# Revision: 0
# Processed by: cddbd v1.5.1PL0 Copyright (c) Steve Scherf et al.
# Submitted via: dBpowerAMP V4.0
#
DISCID=de0f4d0f
DTITLE=Cube Eterno - La Coleccion Cubana Cube Eterno
DYEAR=1900
DGENRE=Folk
TTITLE0=Quizas Quizas Quizas
TTITLE1=Como Un Milagro
TTITLE2=Isoua Club
TTITLE3=La Ultima Noche
TTITLE4=Besame Mucho
TTITLE5=Pa Gozar
TTITLE6=Yo Como Candela
TTITLE7=Buenos Hermanos
TTITLE8=La Ultima Noche
TTITLE9=San Luisera
TTITLE10=No Me Llores Mas
TTITLE11=La Negra Tomasa
TTITLE12=Juramento
TTITLE13=Te Doy La Vida
TTITLE14=Caxabe Y Macho
EXTD=
EXTT0=
EXTT1=
EXTT2=
EXTT3=
EXTT4=
EXTT5=
EXTT6=
EXTT7=
EXTT8=
EXTT9=
EXTT10=
EXTT11=
EXTT12=
EXTT13=
EXTT14=
PLAYORDER=
